<mxfile host="65bd71144e">
    <diagram id="eUhTxTXyAQ_sLvQKyVPA" name="Page-1">
        <mxGraphModel dx="537" dy="528" grid="1" gridSize="10" guides="1" tooltips="1" connect="1" arrows="1" fold="1" page="0" pageScale="1" pageWidth="850" pageHeight="1100" background="#000000" math="0" shadow="0">
            <root>
                <mxCell id="0"/>
                <mxCell id="1" parent="0"/>
                <mxCell id="6" value="" style="edgeStyle=none;html=1;strokeColor=#FFFFFF;" parent="1" source="2" target="5" edge="1">
                    <mxGeometry relative="1" as="geometry"/>
                </mxCell>
                <mxCell id="19" value="" style="edgeStyle=none;html=1;exitX=1;exitY=0.3333333333333333;exitDx=0;exitDy=0;exitPerimeter=0;entryX=0;entryY=0.5;entryDx=0;entryDy=0;endArrow=none;endFill=0;strokeColor=#FFFFFF;" parent="1" source="2" target="18" edge="1">
                    <mxGeometry relative="1" as="geometry"/>
                </mxCell>
                <mxCell id="21" value="" style="edgeStyle=none;html=1;exitX=1;exitY=0.3333333333333333;exitDx=0;exitDy=0;exitPerimeter=0;entryX=0;entryY=0.5;entryDx=0;entryDy=0;endArrow=none;endFill=0;strokeColor=#FFFFFF;" parent="1" source="2" target="20" edge="1">
                    <mxGeometry relative="1" as="geometry"/>
                </mxCell>
                <mxCell id="2" value="Guest" style="shape=umlActor;verticalLabelPosition=bottom;verticalAlign=top;html=1;fillColor=#6a00ff;fontColor=#ffffff;strokeColor=#3700CC;sketch=1;" parent="1" vertex="1">
                    <mxGeometry x="60" y="130" width="30" height="60" as="geometry"/>
                </mxCell>
                <mxCell id="3" value="DevQuests" style="swimlane;fillColor=#6a00ff;fontColor=#ffffff;strokeColor=#3700CC;sketch=1;" parent="1" vertex="1">
                    <mxGeometry x="120" y="14.5" width="520" height="405.5" as="geometry"/>
                </mxCell>
                <mxCell id="9" value="Browse Roadmaps" style="ellipse;whiteSpace=wrap;html=1;verticalAlign=top;fillColor=#6a00ff;fontColor=#ffffff;strokeColor=#3700CC;sketch=1;" parent="3" vertex="1">
                    <mxGeometry x="295" y="47.5" width="120" height="30" as="geometry"/>
                </mxCell>
                <mxCell id="11" value="Browse Resources" style="ellipse;whiteSpace=wrap;html=1;verticalAlign=top;fillColor=#6a00ff;fontColor=#ffffff;strokeColor=#3700CC;sketch=1;" parent="3" vertex="1">
                    <mxGeometry x="295" y="88.18" width="120" height="33.82" as="geometry"/>
                </mxCell>
                <mxCell id="13" value="Browse Interview Questions" style="ellipse;whiteSpace=wrap;html=1;verticalAlign=top;fillColor=#6a00ff;fontColor=#ffffff;strokeColor=#3700CC;sketch=1;" parent="3" vertex="1">
                    <mxGeometry x="295" y="135.5" width="120" height="34.5" as="geometry"/>
                </mxCell>
                <mxCell id="18" value="Browse Content" style="ellipse;whiteSpace=wrap;html=1;verticalAlign=top;fillColor=#6a00ff;fontColor=#ffffff;strokeColor=#3700CC;sketch=1;" parent="3" vertex="1">
                    <mxGeometry x="50" y="90.5" width="120" height="30" as="geometry"/>
                </mxCell>
                <mxCell id="12" value="" style="edgeStyle=none;html=1;entryX=0;entryY=0.5;entryDx=0;entryDy=0;exitX=1;exitY=0.5;exitDx=0;exitDy=0;startArrow=block;startFill=0;endArrow=none;endFill=0;strokeColor=#FFFFFF;" parent="3" source="18" target="13" edge="1">
                    <mxGeometry relative="1" as="geometry">
                        <mxPoint x="150" y="80" as="sourcePoint"/>
                        <mxPoint x="152.55657754316576" y="128.3651957897423" as="targetPoint"/>
                    </mxGeometry>
                </mxCell>
                <mxCell id="10" value="" style="edgeStyle=none;html=1;entryX=0;entryY=0.5;entryDx=0;entryDy=0;exitX=1;exitY=0.5;exitDx=0;exitDy=0;startArrow=block;startFill=0;endArrow=none;endFill=0;strokeColor=#FFFFFF;" parent="3" source="18" target="11" edge="1">
                    <mxGeometry relative="1" as="geometry">
                        <mxPoint x="180" y="120" as="sourcePoint"/>
                        <mxPoint x="272.55657754316576" y="127.04519578974231" as="targetPoint"/>
                    </mxGeometry>
                </mxCell>
                <mxCell id="8" value="" style="edgeStyle=none;html=1;entryX=0;entryY=0.5;entryDx=0;entryDy=0;exitX=1;exitY=0.5;exitDx=0;exitDy=0;startArrow=block;startFill=0;endArrow=none;endFill=0;strokeColor=#FFFFFF;" parent="3" source="18" target="9" edge="1">
                    <mxGeometry relative="1" as="geometry">
                        <mxPoint x="180" y="121.31578947368416" as="sourcePoint"/>
                        <mxPoint x="272.55657754316576" y="88.3651957897423" as="targetPoint"/>
                    </mxGeometry>
                </mxCell>
                <mxCell id="20" value="Register" style="ellipse;whiteSpace=wrap;html=1;verticalAlign=top;fillColor=#6a00ff;fontColor=#ffffff;strokeColor=#3700CC;sketch=1;" parent="3" vertex="1">
                    <mxGeometry x="65" y="164.5" width="90" height="30" as="geometry"/>
                </mxCell>
                <mxCell id="22" value="Login" style="ellipse;whiteSpace=wrap;html=1;verticalAlign=top;fillColor=#6a00ff;fontColor=#ffffff;strokeColor=#3700CC;sketch=1;" parent="3" vertex="1">
                    <mxGeometry x="305" y="266.25" width="100" height="35.5" as="geometry"/>
                </mxCell>
                <mxCell id="25" value="" style="html=1;verticalAlign=bottom;labelBackgroundColor=none;endArrow=open;endFill=0;dashed=1;exitX=0;exitY=0;exitDx=0;exitDy=0;entryX=1;entryY=1;entryDx=0;entryDy=0;strokeColor=#FFFFFF;" parent="3" source="22" target="20" edge="1">
                    <mxGeometry x="-0.5173" y="-8" width="160" relative="1" as="geometry">
                        <mxPoint x="85" y="184" as="sourcePoint"/>
                        <mxPoint x="85" y="150" as="targetPoint"/>
                        <mxPoint as="offset"/>
                    </mxGeometry>
                </mxCell>
                <mxCell id="77" value="&amp;lt;&amp;lt;extend&amp;gt;&amp;gt;" style="edgeLabel;html=1;align=center;verticalAlign=middle;resizable=0;points=[];rotation=25;labelBackgroundColor=none;fontColor=#FFFFFF;" parent="25" vertex="1" connectable="0">
                    <mxGeometry x="0.6447" y="-2" relative="1" as="geometry">
                        <mxPoint x="76" y="29" as="offset"/>
                    </mxGeometry>
                </mxCell>
                <mxCell id="26" value="Follow a Roadmap" style="ellipse;whiteSpace=wrap;html=1;verticalAlign=top;fillColor=#6a00ff;fontColor=#ffffff;strokeColor=#3700CC;sketch=1;" parent="3" vertex="1">
                    <mxGeometry x="50" y="264.5" width="120" height="30" as="geometry"/>
                </mxCell>
                <mxCell id="28" value="&amp;lt;&amp;lt;include&amp;gt;&amp;gt;" style="html=1;verticalAlign=bottom;labelBackgroundColor=none;endArrow=open;endFill=0;dashed=1;exitX=1;exitY=0.5;exitDx=0;exitDy=0;entryX=0;entryY=0.5;entryDx=0;entryDy=0;strokeColor=#FFFFFF;fontColor=#FFFFFF;" parent="3" source="26" target="22" edge="1">
                    <mxGeometry x="-0.2579" y="-3" width="160" relative="1" as="geometry">
                        <mxPoint x="150" y="239" as="sourcePoint"/>
                        <mxPoint x="310" y="239" as="targetPoint"/>
                        <mxPoint as="offset"/>
                    </mxGeometry>
                </mxCell>
                <mxCell id="74" value="Save Progress" style="ellipse;whiteSpace=wrap;html=1;verticalAlign=top;fillColor=#6a00ff;fontColor=#ffffff;strokeColor=#3700CC;sketch=1;" parent="3" vertex="1">
                    <mxGeometry x="50" y="330.5" width="120" height="30" as="geometry"/>
                </mxCell>
                <mxCell id="76" value="&amp;lt;&amp;lt;include&amp;gt;&amp;gt;" style="html=1;verticalAlign=bottom;labelBackgroundColor=none;endArrow=open;endFill=0;dashed=1;exitX=1;exitY=0.5;exitDx=0;exitDy=0;entryX=0.39;entryY=0.965;entryDx=0;entryDy=0;entryPerimeter=0;strokeColor=#FFFFFF;fontColor=#FFFFFF;" parent="3" source="74" target="22" edge="1">
                    <mxGeometry x="-0.3056" y="1" width="160" relative="1" as="geometry">
                        <mxPoint x="180" y="369.5" as="sourcePoint"/>
                        <mxPoint x="355" y="304.5" as="targetPoint"/>
                        <mxPoint as="offset"/>
                    </mxGeometry>
                </mxCell>
                <mxCell id="27" value="" style="edgeStyle=none;html=1;startArrow=none;startFill=0;endArrow=none;endFill=0;exitX=1;exitY=0.3333333333333333;exitDx=0;exitDy=0;exitPerimeter=0;entryX=0;entryY=0.5;entryDx=0;entryDy=0;strokeColor=#FFFFFF;" parent="1" source="5" target="26" edge="1">
                    <mxGeometry relative="1" as="geometry"/>
                </mxCell>
                <mxCell id="75" style="edgeStyle=none;html=1;entryX=0;entryY=0.5;entryDx=0;entryDy=0;exitX=1;exitY=0.3333333333333333;exitDx=0;exitDy=0;exitPerimeter=0;endArrow=none;endFill=0;strokeColor=#FFFFFF;" parent="1" source="5" target="74" edge="1">
                    <mxGeometry relative="1" as="geometry"/>
                </mxCell>
                <mxCell id="5" value="User" style="shape=umlActor;verticalLabelPosition=bottom;verticalAlign=top;html=1;fillColor=#6a00ff;fontColor=#ffffff;strokeColor=#3700CC;sketch=1;" parent="1" vertex="1">
                    <mxGeometry x="60" y="330" width="30" height="60" as="geometry"/>
                </mxCell>
            </root>
        </mxGraphModel>
    </diagram>
</mxfile>